<?xml version="1.0" standalone="no"?>
<!DOCTYPE svg PUBLIC "-//W3C//DTD SVG 20010904//EN"
 "http://www.w3.org/TR/2001/REC-SVG-20010904/DTD/svg10.dtd">
<svg version="1.0" xmlns="http://www.w3.org/2000/svg"
 width="1280.000000pt" height="1280.000000pt" viewBox="0 0 1280.000000 1280.000000"
 preserveAspectRatio="xMidYMid meet">

<g transform="translate(0.000000,1280.000000) scale(0.100000,-0.100000)"
fill="#000000" stroke="none">
<path d="M1767 7993 c-12 -11 -8 -2163 4 -2249 33 -236 131 -440 297 -615 142
-150 318 -252 528 -305 92 -23 130 -27 244 -28 189 0 332 34 500 120 521 268
735 905 480 1430 -144 297 -393 501 -715 584 -116 31 -125 31 -285 27 -91 -3
-175 -8 -187 -12 -17 -6 -23 -17 -28 -59 -8 -64 -2 -432 7 -441 4 -4 31 1 60
11 41 15 81 19 178 18 111 0 133 -3 199 -28 100 -38 165 -81 238 -159 133
-143 188 -341 148 -532 -32 -151 -125 -290 -248 -373 -118 -79 -185 -97 -347
-97 -125 1 -140 3 -205 29 -68 28 -148 76 -190 113 -45 39 -116 137 -144 196
-62 133 -61 109 -61 1297 l0 1080 -233 0 c-129 0 -237 -3 -240 -7z"/>
<path d="M4655 7990 c-123 -41 -204 -188 -166 -303 45 -135 197 -211 317 -158
59 26 88 52 125 110 87 135 -23 341 -191 355 -30 3 -68 1 -85 -4z"/>
<path d="M5607 7993 c-4 -3 -7 -497 -7 -1097 0 -1198 0 -1188 60 -1364 57
-164 138 -294 257 -415 140 -141 309 -238 513 -293 l105 -28 335 -1 335 0 3
242 2 242 -322 4 c-347 4 -357 5 -471 62 -161 81 -275 230 -316 415 -16 67
-14 693 1 708 9 9 147 12 560 12 l548 0 0 239 c0 214 -2 240 -17 245 -9 4
-257 6 -551 6 -385 -1 -538 2 -546 10 -8 8 -12 154 -13 503 -2 271 -3 498 -3
505 0 9 -53 12 -233 12 -129 0 -237 -3 -240 -7z"/>
<path d="M7852 6398 l3 -1603 235 0 235 0 3 1603 2 1602 -240 0 -240 0 2
-1602z"/>
<path d="M4485 6958 c-3 -7 -4 -497 -3 -1088 l3 -1075 238 -3 237 -2 0 1090 0
1090 -235 0 c-179 0 -237 -3 -240 -12z"/>
<path d="M9755 6945 c-271 -55 -525 -224 -679 -449 -244 -357 -259 -803 -39
-1174 56 -95 68 -111 160 -205 207 -209 466 -319 758 -321 145 -1 229 12 355
57 118 41 202 85 295 154 533 397 594 1163 130 1628 -155 156 -265 221 -490
292 -69 22 -103 26 -250 29 -121 2 -190 -1 -240 -11z m406 -497 c185 -68 317
-204 376 -385 29 -89 35 -239 14 -328 -44 -182 -201 -357 -381 -423 -98 -36
-258 -42 -365 -13 -218 60 -383 236 -430 461 -19 90 -19 138 0 237 45 236 242
430 485 477 14 2 72 3 130 1 81 -2 120 -9 171 -27z"/>
</g>
</svg>
