<svg xmlns="http://www.w3.org/2000/svg" width="928.755" height="321" viewBox="0 0 928.755 321">
  <g id="bitlo" transform="translate(-175.975 800)">
    <path id="Path_89" data-name="Path 89" d="M176.7-799.3c-1.2,1.1-.8,216.3.4,224.9a109.021,109.021,0,0,0,29.7,61.5q21.3,22.5,52.8,30.5c9.2,2.3,13,2.7,24.4,2.8,18.9,0,33.2-3.4,50-12,52.1-26.8,73.5-90.5,48-143-14.4-29.7-39.3-50.1-71.5-58.4-11.6-3.1-12.5-3.1-28.5-2.7-9.1.3-17.5.8-18.7,1.2-1.7.6-2.3,1.7-2.8,5.9-.8,6.4-.2,43.2.7,44.1.4.4,3.1-.1,6-1.1,4.1-1.5,8.1-1.9,17.8-1.8,11.1,0,13.3.3,19.9,2.8a57.492,57.492,0,0,1,23.8,15.9,59.981,59.981,0,0,1,14.8,53.2,61.081,61.081,0,0,1-24.8,37.3c-11.8,7.9-18.5,9.7-34.7,9.7-12.5-.1-14-.3-20.5-2.9-6.8-2.8-14.8-7.6-19-11.3-4.5-3.9-11.6-13.7-14.4-19.6-6.2-13.3-6.1-10.9-6.1-129.7V-800H200.7C187.8-800,177-799.7,176.7-799.3Z"/>
    <path id="Path_90" data-name="Path 90" d="M465.5-799c-12.3,4.1-20.4,18.8-16.6,30.3,4.5,13.5,19.7,21.1,31.7,15.8,5.9-2.6,8.8-5.2,12.5-11,8.7-13.5-2.3-34.1-19.1-35.5A27.878,27.878,0,0,0,465.5-799Z"/>
    <path id="Path_91" data-name="Path 91" d="M560.7-799.3c-.4.3-.7,49.7-.7,109.7,0,119.8,0,118.8,6,136.4a106.816,106.816,0,0,0,25.7,41.5c14,14.1,30.9,23.8,51.3,29.3l10.5,2.8,33.5.1h33.5l.3-24.2.2-24.2-32.2-.4c-34.7-.4-35.7-.5-47.1-6.2-16.1-8.1-27.5-23-31.6-41.5-1.6-6.7-1.4-69.3.1-70.8.9-.9,14.7-1.2,56-1.2H721v-23.9c0-21.4-.2-24-1.7-24.5-.9-.4-25.7-.6-55.1-.6-38.5.1-53.8-.2-54.6-1s-1.2-15.4-1.3-50.3c-.2-27.1-.3-49.8-.3-50.5,0-.9-5.3-1.2-23.3-1.2C571.8-800,561-799.7,560.7-799.3Z"/>
    <path id="Path_92" data-name="Path 92" d="M785.2-639.8l.3,160.3h47l.3-160.3L833-800H785Z"/>
    <path id="Path_93" data-name="Path 93" d="M448.5-695.8c-.3.7-.4,49.7-.3,108.8l.3,107.5,23.8.3,23.7.2V-697H472.5C454.6-697,448.8-696.7,448.5-695.8Z"/>
    <path id="Path_94" data-name="Path 94" d="M975.5-694.5c-27.1,5.5-52.5,22.4-67.9,44.9-24.4,35.7-25.9,80.3-3.9,117.4,5.6,9.5,6.8,11.1,16,20.5,20.7,20.9,46.6,31.9,75.8,32.1,14.5.1,22.9-1.2,35.5-5.7a102.074,102.074,0,0,0,29.5-15.4c53.3-39.7,59.4-116.3,13-162.8-15.5-15.6-26.5-22.1-49-29.2-6.9-2.2-10.3-2.6-25-2.9C987.4-695.8,980.5-695.5,975.5-694.5Zm40.6,49.7c18.5,6.8,31.7,20.4,37.6,38.5,2.9,8.9,3.5,23.9,1.4,32.8-4.4,18.2-20.1,35.7-38.1,42.3-9.8,3.6-25.8,4.2-36.5,1.3a60.211,60.211,0,0,1-43-46.1c-1.9-9-1.9-13.8,0-23.7,4.5-23.6,24.2-43,48.5-47.7a121.591,121.591,0,0,1,13-.1C1007.1-647.3,1011-646.6,1016.1-644.8Z"/>
  </g>
</svg>
