<svg xmlns="http://www.w3.org/2000/svg" width="34.342" height="32.195" viewBox="0 0 34.342 32.195">
  <path id="briefcase-solid_1_" data-name="briefcase-solid (1)" d="M21.464,22.537A1.073,1.073,0,0,1,20.39,23.61H13.951a1.076,1.076,0,0,1-1.073-1.073v-3.22H0v9.659A3.3,3.3,0,0,0,3.22,32.2h27.9a3.3,3.3,0,0,0,3.22-3.22V19.317H21.464Zm9.659-16.1H25.756V3.22A3.3,3.3,0,0,0,22.537,0H11.8a3.3,3.3,0,0,0-3.22,3.22v3.22H3.22A3.3,3.3,0,0,0,0,9.659v7.512H34.342V9.659A3.3,3.3,0,0,0,31.122,6.439Zm-8.585,0H11.8V3.22H22.537Z" fill="#0e468b"/>
</svg>
