<svg xmlns="http://www.w3.org/2000/svg" xmlns:xlink="http://www.w3.org/1999/xlink" width="202.528" height="175.267" viewBox="0 0 202.528 175.267">
  <defs>
    <clipPath id="clip-path">
      <path id="Path_75" data-name="Path 75" d="M0,25.227H202.528V200.494H0Zm0,0" transform="translate(0 -25.227)" fill="#2680eb"/>
    </clipPath>
    <clipPath id="clip-path-2">
      <path id="Path_86" data-name="Path 86" d="M150,131H271.517V249.141H150Zm0,0" transform="translate(-150 -131)" fill="#2680eb"/>
    </clipPath>
  </defs>
  <g id="Ads覺z_tasar覺m_5_" data-name="Ads覺z tasar覺m (5)" transform="translate(0 -25.227)">
    <g id="Group_45" data-name="Group 45" transform="translate(0 25.227)" clip-path="url(#clip-path)">
      <path id="Path_74" data-name="Path 74" d="M189.026,25H13.506A13.505,13.505,0,0,0,0,38.491V153.168a13.5,13.5,0,0,0,13.5,13.492H79.853l-8.1,26.983H64.136v6.747H138.4v-6.747h-7.622l-3.323-11.093-6.46,1.949,2.743,9.143H78.8l8.821-29.394a3.37,3.37,0,0,0-3.23-4.333H13.506a6.762,6.762,0,0,1-6.751-6.747v-6.744H74.262v-6.747H6.755V38.491a6.76,6.76,0,0,1,6.751-6.745h175.52a6.76,6.76,0,0,1,6.751,6.745V139.677H178.9v6.747h16.875v6.744a6.774,6.774,0,0,1-2.253,5.034l4.509,5.019a13.485,13.485,0,0,0,4.5-10.053V38.491A13.505,13.505,0,0,0,189.026,25" transform="translate(-0.002 -25.122)" fill="#2680eb"/>
    </g>
    <path id="Path_76" data-name="Path 76" d="M337.5,219.1h6.749v-6.747H337.5V219.1" transform="translate(-155.225 -86.065)" fill="#2680eb"/>
    <path id="Path_77" data-name="Path 77" d="M45.255,163.394h6.751v20.238H45.255Zm27-6.744h6.751v26.982H72.258ZM25,190.378H82.385a3.383,3.383,0,0,0,3.375-3.373v-33.73a3.383,3.383,0,0,0-3.375-3.373h-13.5a3.383,3.383,0,0,0-3.375,3.373v30.356H58.756V160.022a3.379,3.379,0,0,0-3.375-3.373h-13.5a3.381,3.381,0,0,0-3.375,3.373v23.609H25v6.747" transform="translate(-11.5 -57.341)" fill="#2680eb"/>
    <path id="Path_78" data-name="Path 78" d="M170.253,125.925V115.807a3.381,3.381,0,0,0-3.375-3.373h-13.5A3.381,3.381,0,0,0,150,115.807v23.609h6.751V119.178H163.5v6.747h6.751" transform="translate(-68.989 -40.109)" fill="#2680eb"/>
    <path id="Path_79" data-name="Path 79" d="M220.253,98.572V78.334a3.381,3.381,0,0,0-3.375-3.373h-13.5A3.381,3.381,0,0,0,200,78.334v23.609h6.751V81.708H213.5V98.572h6.751" transform="translate(-91.985 -22.874)" fill="#2680eb"/>
    <path id="Path_80" data-name="Path 80" d="M270.253,116.806V103.315a3.381,3.381,0,0,0-3.375-3.374h-13.5A3.381,3.381,0,0,0,250,103.315v10.118h6.751v-6.744H263.5v10.118h6.751" transform="translate(-114.981 -34.363)" fill="#2680eb"/>
    <path id="Path_81" data-name="Path 81" d="M316.877,62.473h-13.5A3.379,3.379,0,0,0,300,65.844V106.32h6.751v-37.1H313.5v57.339h6.751V65.844a3.381,3.381,0,0,0-3.375-3.371" transform="translate(-137.977 -17.13)" fill="#2680eb"/>
    <path id="Path_82" data-name="Path 82" d="M31.25,49.98v6.747H38V49.98H31.25" transform="translate(-14.373 -11.385)" fill="#2680eb"/>
    <path id="Path_83" data-name="Path 83" d="M56.25,49.98v6.747H63V49.98H56.25" transform="translate(-25.871 -11.385)" fill="#2680eb"/>
    <path id="Path_84" data-name="Path 84" d="M88,49.98H81.25v6.747H88V49.98" transform="translate(-37.369 -11.385)" fill="#2680eb"/>
    <g id="Group_46" data-name="Group 46" transform="translate(81.011 82.352)" clip-path="url(#clip-path-2)">
      <path id="Path_85" data-name="Path 85" d="M260.981,242.472a3.76,3.76,0,0,1-2.677-1.106L229.625,212.7a47.83,47.83,0,0,0,5.078-5.612l28.953,28.932a3.781,3.781,0,0,1-2.675,6.456Zm-104.23-64.083a40.506,40.506,0,1,1,40.506,40.474A40.532,40.532,0,0,1,156.751,178.389Zm81.763,22.963a47.4,47.4,0,1,0-14.135,15.654l29.153,29.131a10.531,10.531,0,1,0,14.9-14.888l-29.917-29.9" transform="translate(-150 -131.077)" fill="#2680eb"/>
    </g>
    <path id="Path_87" data-name="Path 87" d="M208.755,216.861a26.983,26.983,0,1,1,27-26.983A27.029,27.029,0,0,1,208.755,216.861Zm0-60.713a33.73,33.73,0,1,0,33.755,33.73,33.774,33.774,0,0,0-33.755-33.73" transform="translate(-80.487 -60.214)" fill="#2680eb"/>
    <path id="Path_88" data-name="Path 88" d="M200,201.367h6.751a13.505,13.505,0,0,1,13.5-13.492v-6.747A20.267,20.267,0,0,0,200,201.367" transform="translate(-91.985 -71.703)" fill="#2680eb"/>
  </g>
</svg>
