<svg xmlns="http://www.w3.org/2000/svg" xmlns:xlink="http://www.w3.org/1999/xlink" width="190.103" height="168.775" viewBox="0 0 190.103 168.775">
  <defs>
    <clipPath id="clip-path">
      <path id="Path_48" data-name="Path 48" d="M263,302h26.49v26.134H263Zm0,0" transform="translate(-263 -302)" fill="#2680eb"/>
    </clipPath>
    <clipPath id="clip-path-2">
      <path id="Path_50" data-name="Path 50" d="M119,302h25.981v26.134H119Zm0,0" transform="translate(-119 -302)" fill="#2680eb"/>
    </clipPath>
  </defs>
  <g id="Ads覺z_tasar覺m_2_" data-name="Ads覺z tasar覺m (2)" transform="translate(0 -22)">
    <path id="Path_39" data-name="Path 39" d="M208.552,203.592c.147,0,.3.149.444.149a1.787,1.787,0,0,0,1.484-1.039l3.711-10.393a1.5,1.5,0,0,0-2.82-1.041l-3.711,10.393A1.486,1.486,0,0,0,208.552,203.592Zm0,0" transform="translate(-101.826 -82.555)" fill="#2680eb"/>
    <path id="Path_40" data-name="Path 40" d="M192.246,172.286l-9.8,4.6a1.652,1.652,0,0,0-.742,2.079,1.427,1.427,0,0,0,1.337.892.887.887,0,0,0,.593-.149l9.8-4.6a1.651,1.651,0,0,0,.742-2.079A1.474,1.474,0,0,0,192.246,172.286Zm0,0" transform="translate(-89.084 -73.67)" fill="#2680eb"/>
    <path id="Path_41" data-name="Path 41" d="M196.539,147.636a1.544,1.544,0,0,0-.889-1.93l-10.243-3.713a1.5,1.5,0,1,0-1.039,2.822l10.241,3.711c.149,0,.3.149.6.149A1.585,1.585,0,0,0,196.539,147.636Zm0,0" transform="translate(-89.962 -58.819)" fill="#2680eb"/>
    <path id="Path_42" data-name="Path 42" d="M218.529,128.368a.887.887,0,0,0,.593-.149,1.648,1.648,0,0,0,.742-2.077l-4.6-9.95a1.649,1.649,0,0,0-2.077-.742,1.771,1.771,0,0,0-.6,2.079l4.6,9.948A1.705,1.705,0,0,0,218.529,128.368Zm0,0" transform="translate(-104.233 -45.788)" fill="#2680eb"/>
    <path id="Path_43" data-name="Path 43" d="M246,130.582a1.788,1.788,0,0,0,1.484-1.039L251.2,119.15a1.5,1.5,0,1,0-2.82-1.039L244.665,128.5a1.545,1.545,0,0,0,.892,1.93C245.556,130.582,245.7,130.582,246,130.582Zm0,0" transform="translate(-119.979 -46.666)" fill="#2680eb"/>
    <path id="Path_44" data-name="Path 44" d="M259.824,154.5a.893.893,0,0,0,.593-.147l9.8-4.6a1.56,1.56,0,0,0-1.337-2.82l-9.8,4.6a1.651,1.651,0,0,0-.742,2.08A2.67,2.67,0,0,0,259.824,154.5Zm0,0" transform="translate(-126.677 -61.231)" fill="#2680eb"/>
    <path id="Path_45" data-name="Path 45" d="M174.413,51.1H45.718C41.266,30.165,29.093,28.83,28.055,28.68H18.7C17.219,25.118,13.8,22,9.647,22A9.629,9.629,0,0,0,0,31.651a9.757,9.757,0,0,0,9.647,9.8c4.157,0,7.572-3.266,9.056-6.83h8.758c.3,0,8.459,2.523,11.578,19.6,4.008,22.718,14.4,79.736,14.4,79.736,0,6.384,3.86,17.965,18.108,17.965h54.921l-2.225-5.791H71.4c-6.085,0-8.758-4.453-9.946-7.572,9.649-.593,36.07-2.376,59.375-4.01l-2.077-7.276c-23.751,1.634-50.024,3.415-58.485,4.01-1.928-9.652-9.2-50.633-13.209-72.907H173.374a9.115,9.115,0,0,1,9.2,10.543l-5.343,43.654a6.787,6.787,0,0,1-.742,2.227l6.531,3.268a14.961,14.961,0,0,0,1.484-4.6L190,68.623C191.037,58.972,184.21,51.1,174.413,51.1Zm0,0" fill="#2680eb"/>
    <path id="Path_46" data-name="Path 46" d="M271.191,198.68l12.467-4.9a2.853,2.853,0,0,0,1.93-2.672,3.427,3.427,0,0,0-1.632-2.971l-52.547-26.578a3.081,3.081,0,0,0-4.3,3.713l17.812,57.462a3.2,3.2,0,0,0,2.672,2.227,3.127,3.127,0,0,0,2.967-1.634l7.126-13.659,15.289,20.342a3.25,3.25,0,0,0,2.077,1.188h.446a3.281,3.281,0,0,0,1.93-.593l9.351-7.278a3.254,3.254,0,0,0,1.188-2.077,3.385,3.385,0,0,0-.6-2.376Zm4.75,25.093L259.611,202.1a3.1,3.1,0,0,0-2.374-1.188h-.3a3.643,3.643,0,0,0-2.523,1.634l-5.938,11.434-13.508-43.507L274.9,190.663l-9.8,3.86a2.81,2.81,0,0,0-1.781,2.079,2.939,2.939,0,0,0,.6,2.673l16.624,21.083Zm0,0" transform="translate(-111.324 -68.289)" fill="#2680eb"/>
    <g id="Group_43" data-name="Group 43" transform="translate(133.981 164.641)" clip-path="url(#clip-path)">
      <path id="Path_47" data-name="Path 47" d="M276.75,302.391a12.919,12.919,0,1,0,12.766,12.919A12.9,12.9,0,0,0,276.75,302.391Zm0,19.6a6.681,6.681,0,1,1,6.68-6.68A6.749,6.749,0,0,1,276.75,321.99Zm0,0" transform="translate(-263.483 -302.192)" fill="#2680eb"/>
    </g>
    <g id="Group_44" data-name="Group 44" transform="translate(60.622 164.641)" clip-path="url(#clip-path-2)">
      <path id="Path_49" data-name="Path 49" d="M132.52,302.391a12.919,12.919,0,1,0,12.765,12.919A12.895,12.895,0,0,0,132.52,302.391Zm0,19.6a6.681,6.681,0,1,1,6.68-6.68A6.749,6.749,0,0,1,132.52,321.99Zm0,0" transform="translate(-119.37 -302.192)" fill="#2680eb"/>
    </g>
  </g>
</svg>
