<svg xmlns="http://www.w3.org/2000/svg" width="44" height="30.251" viewBox="0 0 44 30.251">
  <path id="graduation-cap-solid" d="M42.672,39.265l-19-7a4.612,4.612,0,0,0-3,0l-20,7c-.654.238-1,.292-1,1s.346,1.766,1,2l5,2c-.81,1.076-1.708,1.652-2,3a1.924,1.924,0,0,0-1,2c0,.678-.485,1.6,0,2l-1,10c-.111.663.327,1,1,1h4c.673,0,1.111-.336,1-1l-2-10a3.229,3.229,0,0,0,1-2,2.915,2.915,0,0,0-1-2,7.17,7.17,0,0,1,2-3l13,5a4.612,4.612,0,0,0,3,0l19-7c.657-.239,1-1.292,1-2S43.387,39.5,42.672,39.265Zm-19,12a5.332,5.332,0,0,1-2,0,5.355,5.355,0,0,1-2,0l-10-4-1,10c0,2.812,5.721,5,13,5,7.156,0,13-2.19,13-5l-1-10Z" transform="translate(0.328 -32.014)" fill="#0e468b"/>
</svg>
