<svg id="Ads覺z_tasar覺m_4_" data-name="Ads覺z tasar覺m (4)" xmlns="http://www.w3.org/2000/svg" width="176.485" height="176.485" viewBox="0 0 176.485 176.485">
  <path id="Path_51" data-name="Path 51" d="M88.243,170.6a82.36,82.36,0,1,1,82.36-82.36A82.446,82.446,0,0,1,88.243,170.6Zm0-170.6a88.243,88.243,0,1,0,88.243,88.243A88.339,88.339,0,0,0,88.243,0" fill="#2680eb"/>
  <path id="Path_52" data-name="Path 52" d="M114.711,173.54a58.828,58.828,0,1,1,58.828-58.828A58.9,58.9,0,0,1,114.711,173.54Zm0-123.54a64.711,64.711,0,1,0,64.711,64.711A64.776,64.776,0,0,0,114.711,50" transform="translate(-26.469 -26.469)" fill="#2680eb"/>
  <path id="Path_53" data-name="Path 53" d="M178.053,30.937c1.874-.068,3.781-.068,5.653,0h.116a2.943,2.943,0,0,0,.114-5.883c-2.033-.079-4.078-.079-6.113,0A2.949,2.949,0,0,0,175,28.112a3,3,0,0,0,3.055,2.826" transform="translate(-92.638 -13.232)" fill="#2680eb"/>
  <path id="Path_54" data-name="Path 54" d="M124.917,40.289a2.885,2.885,0,0,0,1.114-.217c.873-.357,1.746-.689,2.631-1.011s1.792-.632,2.678-.919a2.942,2.942,0,0,0-1.781-5.607c-.965.311-1.931.643-2.907,1-.954.346-1.908.713-2.85,1.092a2.941,2.941,0,0,0,1.114,5.664" transform="translate(-64.572 -17.149)" fill="#2680eb"/>
  <path id="Path_55" data-name="Path 55" d="M79.042,67.3a2.9,2.9,0,0,0,1.976-.768q1.053-.949,2.138-1.862c.723-.608,1.458-1.195,2.193-1.769a2.94,2.94,0,1,0-3.6-4.653c-.8.62-1.6,1.263-2.39,1.917s-1.539,1.333-2.3,2.011a2.943,2.943,0,0,0-.195,4.158,2.906,2.906,0,0,0,2.171.965" transform="translate(-40.287 -30.51)" fill="#2680eb"/>
  <path id="Path_56" data-name="Path 56" d="M44.489,108.416a2.879,2.879,0,0,0,1.355.333,2.928,2.928,0,0,0,2.609-1.574c.436-.827.9-1.643,1.368-2.471s.965-1.633,1.458-2.425A2.94,2.94,0,1,0,46.3,99.143c-.539.862-1.068,1.735-1.574,2.62s-1.011,1.781-1.482,2.677a2.944,2.944,0,0,0,1.241,3.976" transform="translate(-22.715 -51.759)" fill="#2680eb"/>
  <path id="Path_57" data-name="Path 57" d="M31.006,148.068a2.934,2.934,0,0,0-3.5,2.241c-.217.987-.414,2-.6,3s-.333,2.011-.471,3.022a2.957,2.957,0,0,0,2.517,3.32c.138.011.265.022.4.022a2.953,2.953,0,0,0,2.919-2.55c.127-.919.265-1.85.425-2.793s.346-1.849.552-2.757a2.935,2.935,0,0,0-2.241-3.5" transform="translate(-13.979 -78.346)" fill="#2680eb"/>
  <path id="Path_58" data-name="Path 58" d="M32.7,207.525c-.16-.93-.3-1.86-.425-2.78a2.945,2.945,0,1,0-5.837.793c.138,1.011.287,2.011.471,3.011s.381,2.022.6,3.01a2.945,2.945,0,0,0,2.873,2.322,2.434,2.434,0,0,0,.631-.081,2.937,2.937,0,0,0,2.241-3.5c-.206-.908-.39-1.827-.552-2.771" transform="translate(-13.979 -107.036)" fill="#2680eb"/>
  <path id="Path_59" data-name="Path 59" d="M49.82,257.951c-.471-.827-.932-1.643-1.368-2.471a2.94,2.94,0,1,0-5.2,2.736c.471.9.965,1.792,1.482,2.676s1.035,1.757,1.574,2.62A2.952,2.952,0,0,0,48.8,264.88a2.982,2.982,0,0,0,1.563-.449,2.928,2.928,0,0,0,.917-4.056c-.493-.794-.987-1.6-1.458-2.425" transform="translate(-22.715 -134.411)" fill="#2680eb"/>
  <path id="Path_60" data-name="Path 60" d="M83.157,299.464q-1.086-.916-2.138-1.862a2.941,2.941,0,0,0-3.953,4.355c.759.678,1.517,1.344,2.309,2.011s1.575,1.3,2.379,1.918a2.94,2.94,0,1,0,3.6-4.653c-.735-.574-1.471-1.16-2.193-1.769" transform="translate(-40.287 -157.138)" fill="#2680eb"/>
  <path id="Path_61" data-name="Path 61" d="M131.34,327.979c-.886-.287-1.781-.587-2.678-.92s-1.758-.654-2.631-1.011A2.943,2.943,0,0,0,123.8,331.5q1.412.568,2.861,1.1c.965.344,1.93.676,2.9.987a2.942,2.942,0,0,0,1.781-5.607" transform="translate(-64.572 -172.486)" fill="#2680eb"/>
  <path id="Path_62" data-name="Path 62" d="M183.706,337.376c-1.872.068-3.78.068-5.653,0A3.028,3.028,0,0,0,175,340.2a2.959,2.959,0,0,0,2.826,3.057c1.011.033,2.035.057,3.057.057s2.044-.024,3.055-.057a2.959,2.959,0,0,0,2.828-3.057,3.037,3.037,0,0,0-3.057-2.826" transform="translate(-92.638 -178.596)" fill="#2680eb"/>
  <path id="Path_63" data-name="Path 63" d="M236.135,326.043c-.873.357-1.747.689-2.633,1.011s-1.792.633-2.676.92a2.942,2.942,0,0,0,1.781,5.607c.965-.311,1.931-.644,2.907-1,.954-.344,1.908-.712,2.85-1.09a2.943,2.943,0,0,0-2.228-5.447" transform="translate(-121.109 -172.481)" fill="#2680eb"/>
  <path id="Path_64" data-name="Path 64" d="M282.291,297.6q-1.053.949-2.138,1.862c-.724.609-1.459,1.195-2.2,1.769a2.941,2.941,0,0,0,3.6,4.653c.8-.62,1.6-1.263,2.39-1.918s1.539-1.333,2.3-2.011a2.941,2.941,0,0,0-3.953-4.355" transform="translate(-146.537 -157.138)" fill="#2680eb"/>
  <path id="Path_65" data-name="Path 65" d="M320.577,254.239a2.954,2.954,0,0,0-3.974,1.241c-.426.827-.886,1.643-1.357,2.471s-.965,1.631-1.471,2.425a2.941,2.941,0,0,0,.93,4.056,3.01,3.01,0,0,0,1.563.449,2.952,2.952,0,0,0,2.495-1.368c.538-.862,1.068-1.735,1.574-2.62s1.011-1.781,1.482-2.676a2.935,2.935,0,0,0-1.241-3.977" transform="translate(-165.866 -134.411)" fill="#2680eb"/>
  <path id="Path_66" data-name="Path 66" d="M336.221,213.8a2.46,2.46,0,0,0,.633.081,2.945,2.945,0,0,0,2.874-2.322c.217-.987.414-2,.6-3s.333-2.011.471-3.022a2.945,2.945,0,1,0-5.837-.793c-.127.919-.265,1.85-.425,2.793s-.345,1.849-.551,2.757a2.937,2.937,0,0,0,2.239,3.5" transform="translate(-176.765 -107.038)" fill="#2680eb"/>
  <path id="Path_67" data-name="Path 67" d="M334.533,154.336c.16.932.3,1.862.425,2.781a2.952,2.952,0,0,0,2.917,2.55c.138,0,.265-.011.4-.022a2.957,2.957,0,0,0,2.516-3.32c-.138-1.011-.3-2.011-.471-3.011s-.38-2.022-.6-3.01a2.941,2.941,0,1,0-5.745,1.263c.206.908.39,1.827.551,2.769" transform="translate(-176.765 -78.343)" fill="#2680eb"/>
  <path id="Path_68" data-name="Path 68" d="M315.246,104.7c.471.827.93,1.643,1.357,2.471a2.955,2.955,0,0,0,2.62,1.574,2.938,2.938,0,0,0,2.6-4.309c-.471-.9-.965-1.793-1.482-2.677s-1.035-1.757-1.574-2.62a2.946,2.946,0,0,0-4.988,3.136c.505.792.989,1.6,1.471,2.425" transform="translate(-165.866 -51.759)" fill="#2680eb"/>
  <path id="Path_69" data-name="Path 69" d="M280.153,64.669q1.086.913,2.138,1.862a2.925,2.925,0,0,0,4.148-.2,2.943,2.943,0,0,0-.195-4.158c-.76-.678-1.517-1.344-2.311-2.011s-1.573-1.3-2.377-1.917a2.941,2.941,0,0,0-3.6,4.653c.736.574,1.471,1.16,2.2,1.769" transform="translate(-146.537 -30.51)" fill="#2680eb"/>
  <path id="Path_70" data-name="Path 70" d="M230.826,38.142c.884.287,1.781.6,2.676.919s1.76.654,2.633,1.011a2.878,2.878,0,0,0,1.114.217,2.941,2.941,0,0,0,1.114-5.664q-1.412-.568-2.861-1.1c-.965-.344-1.93-.677-2.9-.987a2.942,2.942,0,0,0-1.781,5.607" transform="translate(-121.109 -17.149)" fill="#2680eb"/>
  <path id="Path_71" data-name="Path 71" d="M170.592,163.977H160.3V137.5h10.295a13.236,13.236,0,1,1,0,26.473Zm-25,0V137.5h8.824v26.473Zm8.824-58.828v26.473H145.59V105.149Zm11.766,0a13.236,13.236,0,0,1,0,26.473H160.3V105.149Zm12.052,28.071A19.114,19.114,0,0,0,166.18,99.266H160.3V90.441a2.941,2.941,0,1,0-5.883,0v8.824H145.59V90.441a2.941,2.941,0,0,0-5.883,0v8.824H127.941a2.941,2.941,0,0,0,0,5.883h11.766v58.828H127.941a2.941,2.941,0,0,0,0,5.883h11.766v8.824a2.941,2.941,0,0,0,5.883,0V169.86h8.824v8.824a2.941,2.941,0,1,0,5.883,0V169.86h10.295a19.116,19.116,0,0,0,7.64-36.641" transform="translate(-66.172 -46.32)" fill="#2680eb"/>
  <path id="Path_72" data-name="Path 72" d="M89.259,119.312a2.938,2.938,0,0,0-4.1.644,52.843,52.843,0,0,0,0,62.3,2.957,2.957,0,0,0,2.379,1.206,2.94,2.94,0,0,0,2.366-4.677,46.981,46.981,0,0,1,0-55.358,2.943,2.943,0,0,0-.643-4.115" transform="translate(-39.703 -62.863)" fill="#2680eb"/>
  <path id="Path_73" data-name="Path 73" d="M272.442,119.956a2.939,2.939,0,1,0-4.745,3.471,46.981,46.981,0,0,1,0,55.358,2.939,2.939,0,1,0,4.745,3.471,52.843,52.843,0,0,0,0-62.3" transform="translate(-141.411 -62.863)" fill="#2680eb"/>
</svg>
