<svg id="icons8-linkedin" xmlns="http://www.w3.org/2000/svg" width="33.486" height="33.486" viewBox="0 0 33.486 33.486">
  <path id="Path_9" data-name="Path 9" d="M20.018,40.734V26H16V40.734Z" transform="translate(-9.973 -13.275)" fill="#4599fd" fill-rule="evenodd"/>
  <path id="Path_10" data-name="Path 10" d="M18.028,20.621a2.425,2.425,0,0,0,2.73-2.38,2.46,2.46,0,0,0-2.7-2.444A2.427,2.427,0,1,0,18,20.621Z" transform="translate(-9.751 -9.906)" fill="#4599fd" fill-rule="evenodd"/>
  <path id="Path_11" data-name="Path 11" d="M26.888,40.734h4.724v-8.1a3.244,3.244,0,0,1,.21-1.177,2.8,2.8,0,0,1,2.59-1.765c1.746,0,2.559,1.331,2.559,3.282v7.756h4.018V32.421c0-4.458-2.066-6.361-5.241-6.361a3.911,3.911,0,0,0-4.067,2.619h-.069V26H26.888c.064,1.339-.117,14.734-.117,14.734Z" transform="translate(-13.53 -13.275)" fill="#4599fd" fill-rule="evenodd"/>
  <g id="Group_43" data-name="Group 43">
    <path id="Path_12" data-name="Path 12" d="M35.8,40.486H11.688A4.694,4.694,0,0,1,7,35.8V11.688A4.694,4.694,0,0,1,11.688,7H35.8a4.694,4.694,0,0,1,4.688,4.688V35.8A4.694,4.694,0,0,1,35.8,40.486ZM11.688,8.339a3.352,3.352,0,0,0-3.349,3.349V35.8a3.352,3.352,0,0,0,3.349,3.349H35.8A3.352,3.352,0,0,0,39.146,35.8V11.688A3.352,3.352,0,0,0,35.8,8.339Z" transform="translate(-7 -7)" fill="#4599fd" fill-rule="evenodd"/>
  </g>
</svg>
