<svg xmlns="http://www.w3.org/2000/svg" width="28.625" height="28.625" viewBox="0 0 28.625 28.625">
  <path id="square-phone-flip-solid" d="M0,36.089V56.536a4.089,4.089,0,0,0,4.089,4.089H24.535a4.089,4.089,0,0,0,4.089-4.089V36.089A4.089,4.089,0,0,0,24.535,32H4.089A4.089,4.089,0,0,0,0,36.089ZM6.741,49.354l3.466-1.486a.994.994,0,0,1,1.165.287l1.407,1.719a11.173,11.173,0,0,0,5.1-5.1L16.156,43.37a1,1,0,0,1-.287-1.164l1.487-3.468a1,1,0,0,1,1.146-.579l3.219.743a.992.992,0,0,1,.774.972A14.635,14.635,0,0,1,7.882,54.493a.994.994,0,0,1-.974-.774L6.166,50.5A.993.993,0,0,1,6.741,49.354Z" transform="translate(0 -32)" fill="#0e468b"/>
</svg>
