<?xml version="1.0" standalone="no"?>
<!DOCTYPE svg PUBLIC "-//W3C//DTD SVG 20010904//EN"
 "http://www.w3.org/TR/2001/REC-SVG-20010904/DTD/svg10.dtd">
<svg version="1.0" xmlns="http://www.w3.org/2000/svg"
 width="389.000000pt" height="129.000000pt" viewBox="0 0 389.000000 129.000000"
 preserveAspectRatio="xMidYMid meet">

<g transform="translate(0.000000,129.000000) scale(0.100000,-0.100000)"
fill="#000000" stroke="none">
<path d="M774 1120 c-30 -12 -54 -49 -54 -83 0 -40 49 -87 90 -87 42 0 90 47
90 89 0 59 -71 105 -126 81z"/>
<path d="M1514 1120 c-30 -12 -54 -49 -54 -83 0 -40 49 -87 90 -87 42 0 90 47
90 89 0 59 -71 105 -126 81z"/>
<path d="M420 1010 l0 -110 -210 0 -210 0 0 -60 0 -60 210 0 210 0 0 -205 0
-205 75 0 75 0 0 205 0 205 50 0 50 0 0 60 0 60 -50 0 -50 0 0 110 0 110 -75
0 -75 0 0 -110z"/>
<path d="M3603 915 c-53 -80 -99 -145 -102 -145 -3 0 -26 29 -51 65 l-45 65
-93 0 -93 0 91 -120 92 -120 -23 -32 c-13 -18 -95 -130 -182 -248 l-158 -215
87 -3 c64 -2 90 1 95 10 29 50 256 372 264 374 6 2 39 -37 74 -87 l65 -89 94
0 c90 0 94 1 80 18 -52 60 -208 263 -208 270 0 5 62 92 138 193 76 101 141
190 145 197 6 9 -12 12 -82 12 l-91 0 -97 -145z"/>
<path d="M1145 905 c-55 -21 -110 -67 -142 -122 -31 -54 -43 -167 -24 -235 40
-142 192 -225 335 -184 l56 17 0 69 0 70 -40 -21 c-133 -70 -259 73 -190 216
36 74 124 99 195 55 l35 -22 0 71 c0 69 -1 72 -27 83 -44 18 -153 19 -198 3z"/>
<path d="M1965 908 c-11 -6 -30 -20 -42 -31 l-23 -20 0 21 c0 21 -5 22 -75 22
l-75 0 0 -265 0 -265 75 0 75 0 0 180 c0 142 3 187 15 210 26 51 101 53 123 5
8 -17 12 -91 12 -210 l0 -185 74 0 73 0 5 178 c6 219 18 252 93 252 14 0 32
-11 44 -26 20 -25 21 -40 21 -215 l0 -189 75 0 75 0 0 208 c0 196 -1 210 -22
252 -30 60 -77 90 -139 90 -61 0 -96 -13 -135 -51 l-32 -31 -15 22 c-35 49
-150 77 -202 48z"/>
<path d="M2751 906 c-94 -34 -153 -126 -159 -248 -6 -107 16 -167 83 -234 43
-43 61 -54 107 -63 67 -14 135 -1 173 35 l25 23 0 -24 c0 -24 2 -25 75 -25
l75 0 0 265 0 265 -75 0 c-70 0 -75 -1 -75 -22 0 -20 -1 -20 -18 -5 -48 44
-141 58 -211 33z m179 -138 c65 -45 85 -119 54 -198 -21 -53 -60 -80 -116 -80
-53 0 -82 19 -108 70 -68 133 57 285 170 208z"/>
<path d="M730 635 l0 -265 75 0 75 0 0 265 0 265 -75 0 -75 0 0 -265z"/>
<path d="M1470 635 l0 -265 75 0 75 0 0 265 0 265 -75 0 -75 0 0 -265z"/>
<path d="M3730 747 c-54 -27 -64 -94 -21 -138 60 -60 151 -24 151 60 0 32 -6
44 -31 65 -34 29 -61 32 -99 13z m79 -12 c31 -16 41 -33 41 -71 0 -34 -42 -74
-77 -74 -82 1 -106 110 -33 147 32 16 35 16 69 -2z"/>
<path d="M3741 668 c1 -29 4 -43 6 -30 5 27 29 29 38 2 3 -11 11 -20 16 -20 6
0 7 6 1 17 -6 11 -6 23 1 34 16 26 1 49 -33 49 -30 0 -30 0 -29 -52z m48 33
c16 -10 6 -31 -14 -31 -17 0 -28 17 -20 30 8 12 16 12 34 1z"/>
</g>
</svg>
