<svg xmlns="http://www.w3.org/2000/svg" width="153.118" height="51.955" viewBox="0 0 153.118 51.955">
  <g id="trendyol-seeklogo.com" transform="translate(0 0)">
    <path id="Path_17" data-name="Path 17" d="M54.751,88.331H37.416a7.136,7.136,0,0,0,6.869,5.712,6.87,6.87,0,0,0,5.1-2.259l4.193.09a10.587,10.587,0,0,1-9.454,5.748A10.936,10.936,0,0,1,33.476,86.6a10.7,10.7,0,1,1,21.4-.217c-.018.632-.054,1.32-.127,1.952ZM44.159,79.185a6.791,6.791,0,0,0-6.76,6.128H50.919A6.793,6.793,0,0,0,44.159,79.185ZM72.122,97.1V85.728c0-3.543-1.066-6.543-5.224-6.543-3.85,0-5.513,2.983-5.513,6.507V97.1H57.463V76.166h3.669V78.39H61.2a7.289,7.289,0,0,1,6.128-2.8,8.46,8.46,0,0,1,7.411,3.742,9.918,9.918,0,0,1,1.32,5.368V97.1Zm24.818,0V94.116h-.072a8.829,8.829,0,0,1-7.411,3.507A10.613,10.613,0,0,1,78.574,86.7c0-6.272,4.537-11.117,10.882-11.117a9.06,9.06,0,0,1,7.1,3.127h.072v-9.58h3.923V97.1ZM89.673,79.185A7.241,7.241,0,0,0,82.5,86.669a7.214,7.214,0,1,0,14.424,0A7.149,7.149,0,0,0,89.673,79.185Zm22.251,24.908h-4.067l3.055-7.411-8.351-20.516h4.23l6.164,16.25,6.308-16.25h4.23l-11.568,27.927Zm22.757-6.471a11.248,11.248,0,0,1-11.3-11.153,11.3,11.3,0,1,1,11.3,11.153Zm0-18.437a7.429,7.429,0,1,0,7.375,7.375A7.39,7.39,0,0,0,134.682,79.185Zm14.5,17.913V69.135h3.941V97.1ZM3.886,92.977A5.764,5.764,0,0,0,4.519,94.6a5.086,5.086,0,0,0,.958,1.12,6.912,6.912,0,0,0,4.682,1.645,10.554,10.554,0,0,0,5.151-1.32V92.29a9.229,9.229,0,0,1-4.645,1.446c-1.988,0-3.019-1.211-3.019-3.615V79.872h6.6V76.239H7.664V69.515H3.778v6.706H0v3.633H3.615v9.291A17.554,17.554,0,0,0,3.886,92.977Zm23.769-13.3a6.136,6.136,0,0,1,3.977,2.006l2.133-3.543A8.4,8.4,0,0,0,28.7,75.823h-.271a5.848,5.848,0,0,0-5.676,3.109l-.072.126.018-2.82H18.636V96.99H22.7V86.145a7.293,7.293,0,0,1,1.464-4.537A4.317,4.317,0,0,1,27.656,79.673Z" transform="translate(0 -52.139)" fill="#231f20"/>
    <path id="Path_18" data-name="Path 18" d="M450.589,19.588a.358.358,0,0,1-.4-.289l-1.048-6.58a6.667,6.667,0,0,1,1.121-5.4,7.3,7.3,0,0,1,4.844-2.657L482.438.319a.358.358,0,0,1,.4.289l2.079,13.2a.358.358,0,0,1-.289.4Z" transform="translate(-338.122 -0.314)" fill="#ff671b"/>
    <path id="Path_19" data-name="Path 19" d="M469.059,26.813a2.088,2.088,0,0,1-1.735,1.554,2.279,2.279,0,0,1-2.621-2.061,2.258,2.258,0,0,1,1.844-2.784,2.082,2.082,0,0,1,2.133.94l1.32-.217a3.473,3.473,0,0,0-6.489,2.241,3.414,3.414,0,0,0,3.977,2.946,3.453,3.453,0,0,0,2.874-2.856l-1.3.235Zm5.1-5.64a3.556,3.556,0,0,0-3.019,4.049,3.646,3.646,0,1,0,3.019-4.049Zm.958,5.911a2.464,2.464,0,1,1,2.006-2.856A2.447,2.447,0,0,1,475.114,27.084Zm14.876-1.5-.651-4.013a2.563,2.563,0,0,0-3.163-2.368,2.342,2.342,0,0,0-2.006,1.464l-.036.072-.036-.054a2.363,2.363,0,0,0-2.241-.777,2.234,2.234,0,0,0-1.753,1.211l-.018.018-.072.018-.127-.723-1.085.181,1.085,6.652,1.193-.2-.6-3.723c-.217-1.374.217-2.133,1.374-2.314a1.461,1.461,0,0,1,1.392.434,2.364,2.364,0,0,1,.506,1.356l.614,3.705,1.193-.2-.615-3.705c-.163-.958-.145-2.079,1.3-2.314,1.066-.181,1.753.452,1.97,1.79l.6,3.705,1.175-.217Zm-26.68,3.922a.958.958,0,1,1-.958-.958A.931.931,0,0,1,463.311,29.506Z" transform="translate(-347.447 -14.498)" fill="#fff"/>
  </g>
</svg>
